# xmcd
#
# Track frame offsets:
# 150
# 21811
# 43811
# 55751
# 91728
# 105073
# 131058
# 158239
# 179448
# 201814
# 219974
# 245504
#
# Disc length: 3688 seconds
#
#
# Revision: 3
# Processed by: cddbd v1.5.1PL2 Copyright (c) Steve Scherf et al.
# Submitted via: FreeRIP 2.944 
#
DISCID=980e660c
DTITLE=Various Artist - 005 - 30 Years North Sea Jazz Festival CD 05 1996-2000
DYEAR=2005
DGENRE=Jazz
TTITLE0=Roy Hargrove - Afrodisia
TTITLE1=The Rippingtons - Morocco
TTITLE2=Elvin Jones - M.E.
TTITLE3=Herbie Hancock - Love is Stronger than Pride
TTITLE4=Dee Dee Bridgewater - (I'd Like to Get You) Slow Boat to China
TTITLE5=Terry Callier - No More Blues
TTITLE6=Kenny Baron - Tongue in Cheek
TTITLE7=The Headhunters - Watch Your Back
TTITLE8=Nils Petter Molvaer - Solid Ether (Funkstörung Mix)
TTITLE9=Courtney Pine - Keep It Real
TTITLE10=Michiel Borstlap - Gramercy Park
TTITLE11=Regina Carter - Higher Ground
EXTD=YEAR: 2005
EXTT0=
EXTT1=
EXTT2=
EXTT3=
EXTT4=
EXTT5=
EXTT6=
EXTT7=
EXTT8=
EXTT9=
EXTT10=
EXTT11=
PLAYORDER=
